
<svg width="48" height="48" viewBox="0 0 48 48" fill="none" xmlns="http://www.w3.org/2000/svg"><path d="M6 4a4 4 0 0 1 4-4h21.2c.5 0 1 .2 1.4.6l8.8 8.8c.4.4.6.9.6 1.4V44a4 4 0 0 1-4 4H10a4 4 0 0 1-4-4V4Z" fill="#A4A4A4"/><path d="M6 30h36v11.2c0 2.4 0 3.6-.5 4.5-.4.8-1 1.4-1.8 1.8-1 .5-2.1.5-4.5.5H12.8c-2.4 0-3.6 0-4.5-.5-.8-.4-1.4-1-1.8-1.8-.5-1-.5-2.1-.5-4.5V30Z" fill="#858585"/><path fill-rule="evenodd" clip-rule="evenodd" d="M31.2 0H31c.6 0 1 .4 1 1v5a4 4 0 0 0 4 4h5c.6 0 1 .4 1 1v-.2c0-.5-.2-1-.6-1.4l-.3-.3L40 8l-6-6L32.9.9l-.3-.3a2 2 0 0 0-1.4-.6Z" fill="#BFBFBF"/><path d="M23.2 41.4V40.2l.4-.7c.2-.2.4-.5.9-.8a4 4 0 0 0 .9-.8c.2-.2.3-.6.3-1 0-.3-.1-.6-.4-.8-.2-.2-.5-.3-1-.3s-.9 0-1.1.4a2 2 0 0 0-.5 1l-1.4-.2c.1-.8.5-1.3 1-1.8.5-.4 1.2-.6 2-.6.6 0 1 0 1.5.3.4.2.7.4 1 .8.2.4.3.8.3 1.3 0 .6-.2 1-.4 1.4-.3.4-.7.8-1.3 1.2l-.6.5-.2.5-.1.8h-1.3Zm-.2 1.8c0-.2 0-.4.2-.6.2-.2.4-.2.7-.2.2 0 .5 0 .6.2l.3.6c0 .3 0 .5-.3.7l-.6.2a1 1 0 0 1-.7-.2 1 1 0 0 1-.2-.7Z" fill="#fff" fill-opacity=".8"/></svg>