<svg width="250" height="50" viewBox="0 0 250 50" fill="none" xmlns="http://www.w3.org/2000/svg"><path d="M8.58 33.28a6.1 6.1 0 0 1-3.38-.94 6.49 6.49 0 0 1-2.28-2.64 8.92 8.92 0 0 1-.82-3.92c0-1.48.27-2.78.82-3.9a6.32 6.32 0 0 1 2.28-2.64c.97-.64 2.1-.96 3.38-.96 1.28 0 2.4.32 3.36.96.97.63 1.73 1.5 2.26 2.62.55 1.12.82 2.43.82 3.92 0 1.48-.27 2.79-.82 3.92a6 6 0 0 1-5.62 3.58Zm-.02-1.8c.92 0 1.72-.23 2.4-.7a4.67 4.67 0 0 0 1.58-2c.37-.87.56-1.87.56-3 0-1.15-.19-2.15-.56-3a4.53 4.53 0 0 0-1.58-1.98 4.02 4.02 0 0 0-2.38-.72c-.9 0-1.7.24-2.4.72a4.67 4.67 0 0 0-1.6 1.98 7.44 7.44 0 0 0-.56 3c0 1.13.19 2.13.56 3 .37.85.9 1.52 1.58 2 .7.47 1.5.7 2.4.7ZM17.18 29.48a2.16 2.16 0 0 1-.88-1.6c.61-.36 1.18-.8 1.7-1.32v-9.14c0-1.33.28-2.36.84-3.08.57-.72 1.4-1.07 2.48-1.06.98.01 1.75.39 2.3 1.12.56.73.84 1.69.84 2.86 0 1.04-.16 2.11-.46 3.22-.3 1.1-.76 2.19-1.38 3.28l.36-.02c1 0 1.79.35 2.38 1.06.6.7.9 1.65.9 2.84v1.72c0 .77.09 1.33.28 1.68.2.35.52.52.98.52.14 0 .3-.03.48-.1.17-.07.35-.17.54-.3.22.1.41.3.56.56.14.25.21.5.2.76-.22.24-.49.43-.82.58-.34.15-.7.22-1.08.22-.96 0-1.7-.3-2.22-.92a4.1 4.1 0 0 1-.76-2.64V27.6c0-.68-.16-1.2-.46-1.58-.3-.39-.72-.58-1.26-.58s-1.02.18-1.44.54c-.43.35-.77.83-1.02 1.44a5.77 5.77 0 0 0-.4 2.12V33a3.6 3.6 0 0 1-.9.14c-.31 0-.62-.05-.94-.14v-4.08c-.32.25-.6.44-.82.56Zm2.6-12.08v7.78a18.76 18.76 0 0 0 2.16-4.1c.49-1.36.74-2.64.74-3.84 0-.75-.13-1.31-.38-1.7-.24-.4-.6-.6-1.06-.6-.98 0-1.46.82-1.46 2.46ZM32.42 33.14a2.9 2.9 0 0 1-.92-.14V18.56c.16-.07.32-.1.48-.12a4.98 4.98 0 0 1 .86 0c.17.01.34.05.5.12l4.9 9.7 4.88-9.7c.17-.07.33-.1.48-.12a4.3 4.3 0 0 1 .86 0c.17.01.33.05.48.12V33a3.35 3.35 0 0 1-1.86 0V22.56l-4.02 7.98c-.23.1-.5.14-.82.14-.32 0-.6-.05-.84-.14l-4.04-8V33c-.32.1-.63.14-.94.14ZM48.2 33.08c-.3-.1-.57-.27-.8-.48-.21-.23-.35-.5-.42-.8.24-.23.52-.51.84-.86a7.58 7.58 0 0 0 1.7-2.9c.21-.61.32-1.3.32-2.06v-2.42a2.8 2.8 0 0 1 .92-.14c.3 0 .6.05.9.14v4.62c0 2.21.8 3.32 2.42 3.32.95 0 1.64-.38 2.08-1.14.45-.77.68-1.83.68-3.16v-3.64a2.9 2.9 0 0 1 1.82 0v8.34a19.43 19.43 0 0 1 1.64-1.06c.27.16.47.37.62.62.15.25.24.55.28.88l-.78.52a111.81 111.81 0 0 0-1.76 1.16v4.58c0 3.12-1.14 4.68-3.42 4.68a3.27 3.27 0 0 1-2.48-.94 3.63 3.63 0 0 1-.88-2.58c0-2.44 1.67-4.73 5-6.86v-.94a3.82 3.82 0 0 1-3.04 1.32c-1.84 0-3.05-.83-3.64-2.48a7.44 7.44 0 0 1-2 2.28Zm5.48 6.64c0 .57.13 1.02.4 1.34.27.33.63.5 1.1.5 1.13 0 1.7-.99 1.7-2.96v-3.58c-2.13 1.5-3.2 3.07-3.2 4.7ZM65.52 33.14c-.3 0-.57-.05-.84-.14l-3.82-14.22c.19-.13.46-.24.82-.32.37-.1.7-.12.96-.08l3.1 11.54 3.38-8.76a2.59 2.59 0 0 1 1.68 0l3.4 8.8 3.1-11.58c.35-.04.68-.01 1 .08.32.08.57.19.74.32L75.26 33c-.3.1-.58.14-.86.14-.3 0-.57-.05-.84-.14l-3.6-9.3-3.58 9.3c-.3.1-.58.14-.86.14ZM78.51 31.6a18.11 18.11 0 0 0 2.64-1.12 6.37 6.37 0 0 1-.2-5.14c.3-.64.73-1.14 1.28-1.5a3.22 3.22 0 0 1 3.42-.14c.45.27.8.64 1.06 1.12.25.48.38 1.03.38 1.66-.05 1.6-1.19 3.11-3.4 4.54.44.37 1.05.56 1.84.56.39 0 .77-.05 1.16-.16.39-.1.76-.25 1.12-.44.2.15.35.37.44.66.1.28.16.55.16.82-.44.25-.9.45-1.4.6-.5.15-1.01.22-1.56.22h-.02c-.7 0-1.34-.12-1.94-.36a3.68 3.68 0 0 1-1.42-1.04c-.5.25-1.02.5-1.58.74-.55.23-1.01.4-1.4.52a1.6 1.6 0 0 1-.46-.66c-.1-.25-.15-.55-.12-.88Zm3.72-4.24c0 .95.15 1.73.46 2.36.92-.61 1.59-1.16 2-1.64.41-.5.63-1.03.66-1.6 0-.48-.12-.85-.36-1.12a1.16 1.16 0 0 0-.96-.42c-.52 0-.95.23-1.3.7-.33.47-.5 1.04-.5 1.72ZM95.65 33.28c-1.36 0-2.54-.3-3.52-.9a5.88 5.88 0 0 1-2.24-2.52 8.67 8.67 0 0 1-.78-3.8c0-1.55.28-2.9.84-4.06a6.28 6.28 0 0 1 5.86-3.72c1.04 0 1.98.21 2.84.64.86.41 1.56 1 2.1 1.74-.07.24-.24.49-.52.74-.27.25-.54.42-.8.5a4.55 4.55 0 0 0-1.64-1.38 4.53 4.53 0 0 0-1.98-.44c-.95 0-1.78.25-2.5.74a4.87 4.87 0 0 0-1.68 2.06c-.4.88-.6 1.9-.6 3.08 0 1.1.18 2.07.54 2.9.37.83.91 1.47 1.62 1.94.72.45 1.6.68 2.62.68.9 0 1.66-.18 2.32-.54a6.12 6.12 0 0 0 1.78-1.52c.25.08.51.23.78.44a2 2 0 0 1 .56.64c-.62.9-1.4 1.6-2.38 2.08-.96.47-2.04.7-3.22.7ZM103.05 29.48a2.16 2.16 0 0 1-.88-1.6c.61-.36 1.18-.8 1.7-1.32v-9.14c0-1.33.28-2.36.84-3.08.58-.72 1.4-1.07 2.48-1.06.99.01 1.75.39 2.3 1.12.56.73.84 1.69.84 2.86 0 1.04-.15 2.11-.46 3.22-.3 1.1-.75 2.19-1.38 3.28l.36-.02c1 0 1.8.35 2.38 1.06.6.7.9 1.65.9 2.84v1.72c0 .77.1 1.33.28 1.68.2.35.53.52.98.52.22 0 .37.09.46.26.1.16.14.37.14.62s-.06.45-.2.6a.61.61 0 0 1-.52.24c-.96 0-1.7-.3-2.22-.92a4.1 4.1 0 0 1-.76-2.64V27.6c0-.68-.15-1.2-.46-1.58-.3-.39-.71-.58-1.26-.58-.53 0-1.01.18-1.44.54-.42.35-.77.83-1.02 1.44a5.75 5.75 0 0 0-.4 2.12V33a3.62 3.62 0 0 1-.9.14c-.3 0-.62-.05-.94-.14v-4.08c-.32.25-.6.44-.82.56Zm2.6-12.08v7.78a18.82 18.82 0 0 0 2.16-4.1c.5-1.36.74-2.64.74-3.84 0-.75-.13-1.31-.38-1.7-.24-.4-.6-.6-1.06-.6-.97 0-1.46.82-1.46 2.46Z" fill="#000"/><path d="M113.42 31.56c.45 0 .89-.22 1.32-.66.44-.45.8-1.06 1.1-1.82a5.88 5.88 0 0 1 .58-3.26c.4-.79.94-1.4 1.62-1.86.69-.45 1.48-.68 2.36-.68.46 0 .92.1 1.38.28.45.17.83.41 1.14.72v-.82a2.8 2.8 0 0 1 .92-.14c.32 0 .62.05.9.14v5.86c0 .7.1 1.26.32 1.66.22.39.6.58 1.12.58.22 0 .38.1.46.28.08.19.12.39.12.6a1 1 0 0 1-.18.58c-.11.17-.29.26-.54.26-1.31 0-2.18-.59-2.62-1.76a4 4 0 0 1-3.38 1.76c-.78 0-1.46-.17-2.06-.5a4.19 4.19 0 0 1-1.44-1.42c-.83 1.28-1.92 1.92-3.26 1.92a.49.49 0 0 1-.42-.24 1.1 1.1 0 0 1-.16-.62c0-.57.24-.86.72-.86Zm4.26-3.04c0 .95.21 1.7.64 2.24.44.53 1.04.8 1.8.8.84 0 1.51-.29 2.02-.86.52-.57.78-1.33.78-2.26V26.2c-.27-.36-.61-.65-1.02-.86a2.63 2.63 0 0 0-2.8.12c-.44.3-.79.73-1.04 1.26a4.07 4.07 0 0 0-.38 1.8Z" fill="#000"/><path d="M126.17 31.56c.33 0 .71-.1 1.14-.3.44-.2.87-.54 1.28-1.02.41-.48.75-1.13 1.02-1.94.27-.83.4-1.86.4-3.1v-1.92h-1.48a2 2 0 0 1-.14-.8 2 2 0 0 1 .14-.8h1.48v-3.54a3.02 3.02 0 0 1 1.84 0v3.54h2.98c.1.21.16.48.16.8 0 .32-.05.59-.16.8h-2.98v6.28c0 .32.03.63.08.94.07.3.19.57.36.78.17.2.44.3.8.3.36 0 .68-.1.96-.28.3-.2.54-.4.74-.58.21.16.4.36.58.6.17.24.28.48.32.72a3.73 3.73 0 0 1-1.48 1.02 3.2 3.2 0 0 1-1.22.22c-.8 0-1.42-.22-1.86-.66a3.27 3.27 0 0 1-.84-1.72 5.38 5.38 0 0 1-1.98 1.8 4.9 4.9 0 0 1-2.28.58c-.17 0-.31-.09-.42-.26-.1-.16-.16-.36-.16-.6a1 1 0 0 1 .18-.62c.12-.16.3-.24.54-.24ZM138.7 33.28a1.38 1.38 0 0 1 0-2.74c.37 0 .7.13.96.4.28.27.42.59.42.96s-.14.7-.42.98c-.27.27-.59.4-.96.4ZM146.97 33.28c-1.04 0-1.94-.2-2.72-.62a4.48 4.48 0 0 1-1.8-1.72 5.19 5.19 0 0 1-.64-2.62c0-.99.19-1.85.56-2.6.38-.76.89-1.35 1.54-1.78a4.05 4.05 0 0 1 2.28-.66c.64 0 1.22.13 1.74.38.54.24.97.6 1.3 1.06a1.8 1.8 0 0 1-1.16 1.18c-.44-.6-1.04-.9-1.82-.9-.77 0-1.4.3-1.88.88a3.6 3.6 0 0 0-.7 2.34c0 1.01.3 1.83.88 2.44.6.61 1.45.92 2.54.92.18 0 .32.09.42.26a1 1 0 0 1 .18.62c0 .25-.06.45-.2.6-.12.15-.29.22-.52.22Z" fill="#000"/><path d="M147 33.28a.5.5 0 0 1-.44-.24 1 1 0 0 1-.18-.62c0-.27.07-.47.2-.62.13-.15.3-.22.52-.22.81 0 1.55-.21 2.22-.64a5.03 5.03 0 0 0 1.66-1.8 6.22 6.22 0 0 1-.06-.88c0-.96.2-1.81.62-2.56a4.63 4.63 0 0 1 8.16 0c.41.75.62 1.6.62 2.56s-.2 1.82-.62 2.58a4.49 4.49 0 0 1-4.06 2.44 4.57 4.57 0 0 1-3.94-2.16 5.64 5.64 0 0 1-2.06 1.6c-.8.37-1.68.56-2.64.56Zm8.62-1.72c.85 0 1.53-.3 2.04-.9.52-.6.78-1.4.78-2.4 0-.5-.07-.95-.22-1.36a5.74 5.74 0 0 1-2.18-.48c-.64-.3-1.15-.7-1.52-1.2-.53.23-.95.61-1.26 1.16-.3.53-.46 1.17-.46 1.92 0 .97.25 1.76.76 2.36.52.6 1.2.9 2.06.9Z" fill="#000"/><path d="M164.93 33.14a2.7 2.7 0 0 1-.9-.14v-6.38c0-1.08-.3-1.62-.92-1.62-.3 0-.7.13-1.22.38s-1.11.61-1.78 1.08a.67.67 0 0 1-.38.12c-.19 0-.38-.1-.56-.32a1.02 1.02 0 0 1-.28-.68c0-.23.11-.41.34-.56a17.8 17.8 0 0 1 2.3-1.34c.59-.27 1.16-.4 1.74-.4.57 0 1.06.17 1.46.5.41.32.7.77.88 1.34.3-.59.7-1.04 1.2-1.36.5-.32 1.07-.48 1.7-.48 1.3 0 2.2.67 2.66 2.02.32-.64.75-1.13 1.3-1.48a3.3 3.3 0 0 1 1.86-.54c.94 0 1.67.3 2.18.9.5.6.76 1.45.76 2.54v2.78c0 .73.1 1.26.28 1.58.2.32.51.48.94.48.14 0 .3-.03.48-.1.17-.07.35-.17.54-.3.23.1.41.3.56.56.15.25.21.5.2.76-.22.24-.49.43-.82.58-.33.15-.7.22-1.08.22h-.02c-1.94 0-2.9-1.19-2.9-3.56v-2.56c0-.7-.13-1.23-.38-1.6a1.23 1.23 0 0 0-1.08-.56c-.7 0-1.27.4-1.68 1.22-.4.8-.6 1.91-.6 3.34V33a3.62 3.62 0 0 1-.9.14c-.32 0-.63-.05-.92-.14v-5.56a3.2 3.2 0 0 0-.42-1.8 1.32 1.32 0 0 0-1.2-.64c-.48 0-.9.2-1.28.58-.36.37-.65.9-.86 1.6-.2.68-.3 1.47-.3 2.38V33a3.62 3.62 0 0 1-.9.14Z" fill="#000"/><path fill-rule="evenodd" clip-rule="evenodd" d="M184 22.7c0-9.57 10.06-13.09 16.25-14.13 9.25-1.57 21.75-1.37 32 0C239.5 9.53 249 13.09 249 22.7c0 9.6-5.96 13.82-13.14 14.7-8.86 1.07-27.36 1.86-37.93-.57C191.54 35.36 184 32.27 184 22.7Zm15.34 9.47c.76.44 1.71.66 2.85.66 1.22 0 2.36-.22 3.42-.66a6.14 6.14 0 0 0 3.51-3.39c.22-.52.33-1.02.33-1.5 0-.86-.28-1.65-.84-2.37a9.34 9.34 0 0 0-2.07-1.98 27.2 27.2 0 0 0-2.49-1.68 16.78 16.78 0 0 0 4.29-.75c.8-.26 1.54-.58 2.22-.96a5.38 5.38 0 0 0 1.65-1.38c.44-.56.67-1.21.69-1.95 0-.68-.27-1.3-.81-1.86a4.45 4.45 0 0 0-2.31-1.17c-.74-.16-1.6-.24-2.58-.24a33.32 33.32 0 0 0-6.12.72c-1.02.22-1.98.48-2.88.78-.9.28-1.67.59-2.31.93-.58.32-1.21.72-1.89 1.2-.66.48-1.24 1.01-1.74 1.59a3.34 3.34 0 0 0-.81 1.83l.03.27.03.21c-.06.48.02.9.24 1.26s.5.67.84.93c.36.24.72.42 1.08.54.36.12.66.18.9.18.22 0 .33-.05.33-.15 0-.08-.09-.16-.27-.24a5.21 5.21 0 0 0-.9-.36 2.92 2.92 0 0 1-.99-.6c-.28-.26-.4-.64-.36-1.14.1-.86.53-1.64 1.29-2.34.78-.72 1.77-1.35 2.97-1.89 1.2-.54 2.49-.99 3.87-1.35a34.2 34.2 0 0 1 7.62-1.11c.34 0 .66.01.96.03a4 4 0 0 1 .78.12 3.1 3.1 0 0 1 1.65.69c.34.3.51.64.51 1.02 0 .24-.06.49-.18.75-.1.24-.24.47-.42.69-.3.38-.77.76-1.41 1.14a15.38 15.38 0 0 1-4.29 1.77c-.7.18-1.28.27-1.74.27-.2 0-.46.1-.78.3-.32.18-.48.39-.48.63 0 .28.19.62.57 1.02.4.38.87.8 1.41 1.26.54.46 1.03.95 1.47 1.47.52.56.9 1.12 1.14 1.68.24.54.36 1.06.36 1.56 0 .72-.23 1.37-.69 1.95-.46.56-1.08 1-1.86 1.32a6.9 6.9 0 0 1-2.64.48c-.92 0-1.64-.21-2.16-.63a2.66 2.66 0 0 1-1.02-2.07c-.02-.2-.08-.37-.18-.51-.1-.16-.29-.24-.57-.24-.14-.04-.31.06-.51.3l-.6.72c-.32.38-.62.57-.9.57-.22 0-.33-.14-.33-.42 0-.18.08-.49.24-.93a48.8 48.8 0 0 1 3.66-6.93 30.2 30.2 0 0 1 1.65-2.43c.58-.74 1.14-1.33 1.68-1.77.54-.44 1.04-.66 1.5-.66a.3.3 0 0 1 .15.06l.18.03c.04 0 .06-.03.06-.09a.57.57 0 0 0-.03-.18.9.9 0 0 0-.45-.6 2.29 2.29 0 0 0-.72-.3 1.9 1.9 0 0 0-.54-.12c-.38 0-.79.14-1.23.42a5.7 5.7 0 0 0-1.23.99c-.38.4-.7.8-.96 1.2-.24.4-.38.72-.42.96.04.08.06.18.06.3 0 .08-.02.2-.06.36a24.74 24.74 0 0 1-1.05 2.13l-1.26 2.31-1.29 2.58c-.4.86-.73 1.65-.99 2.37-.24.7-.33 1.24-.27 1.62.02.08.11.15.27.21a5.44 5.44 0 0 0 .9.21c.24 0 .47-.11.69-.33.24-.2.46-.45.66-.75l.57-.78v.18c.14.92.59 1.6 1.35 2.04Zm11.86-3.27c0 .86.33 1.5.99 1.92.66.42 1.44.63 2.34.63 1.02 0 2-.24 2.94-.72.96-.5 1.83-1.12 2.61-1.86a17.6 17.6 0 0 0 1.92-2.11c-.22.49-.4 1-.56 1.51-.18.6-.27 1.1-.27 1.5v.21l.06.18c.14.44.35.74.63.9.3.16.63.24.99.24.4 0 .79-.08 1.17-.24.4-.14.73-.31.99-.51a14.18 14.18 0 0 0 2.31-2.08l-.01.25c0 .42.15.83.45 1.23.22.3.5.55.87.75.36.18.7.27 1.02.27a3 3 0 0 0 1.47-.42c.5-.28.98-.63 1.44-1.05.48-.44.9-.87 1.29-1.29l.99-1.11c.28-.32.47-.5.57-.54-.14.38-.27.84-.4 1.38a6.83 6.83 0 0 0-.17 1.47c0 .32.03.57.09.75.14.44.35.74.63.9.3.16.62.24.96.24.4 0 .8-.08 1.2-.24.4-.14.73-.31.99-.51a19.39 19.39 0 0 0 2.94-2.79c.42-.5.74-.93.96-1.29.06-.1.06-.18 0-.24-.06-.08-.13-.12-.21-.12-.06 0-.12.03-.18.09-.16.24-.46.6-.9 1.08-.42.46-.9.94-1.41 1.44-.52.5-1.03.93-1.53 1.29s-.9.54-1.2.54c-.56 0-.84-.4-.84-1.2v-.21c0-.08 0-.16.03-.24a11.47 11.47 0 0 1 1.8-4.35c.1-.16.07-.29-.1-.39-.15-.1-.35-.17-.6-.21a2.08 2.08 0 0 0-.47-.09c-.08 0-.26.13-.54.39a46.07 46.07 0 0 0-1.86 1.95 29.62 29.62 0 0 1-1.47 1.47c-.4.4-.85.82-1.35 1.26-.5.42-1 .78-1.47 1.08-.46.3-.83.45-1.11.45-.18 0-.31-.07-.4-.21-.13-.2-.2-.43-.2-.69 0-.48.17-1.01.5-1.59a11.8 11.8 0 0 1 4.69-4.47 5.62 5.62 0 0 1 2.64-.78c.28 0 .55.04.8.12.29.06.5.21.67.45.14.06.2.01.2-.15a.76.76 0 0 0-.14-.45c-.1-.14-.23-.25-.4-.33-.2-.16-.44-.27-.74-.33-.3-.08-.6-.12-.87-.12-.5 0-.95.06-1.35.18-.38.1-.88.31-1.5.63a17.16 17.16 0 0 0-3.81 2.64 9.23 9.23 0 0 0-1.41 1.64l-.26.28c-.42.46-.89.95-1.41 1.47-.52.5-1.03.93-1.53 1.29-.5.34-.91.51-1.23.51-.52 0-.78-.4-.78-1.2v-.21l.03-.24a5.8 5.8 0 0 1 .57-1.83l1.2-2.52a16.76 16.76 0 0 0 .87-1.5l2.04-.24c.68-.1 1.12-.19 1.32-.27.52-.14.78-.25.78-.33 0-.06-.06-.1-.18-.12a.8.8 0 0 0-.3-.06c-.56-.02-1.06 0-1.5.06-.42.06-.87.11-1.35.15l-.36.03c.26-.4.51-.82.75-1.26l.66-1.23c.1-.2.21-.32.33-.36a.68.68 0 0 0 .33-.3c.08-.1.16-.23.24-.39.08-.18.12-.36.12-.54a.49.49 0 0 0-.09-.3c-.08-.14-.25-.23-.51-.27a2.7 2.7 0 0 0-.69-.03c-.2.04-.36.17-.48.39l-.78 1.26-.24.45a64.64 64.64 0 0 1-1.23 2.34c-.06 0-.1.02-.12.06l-.9.09c-.34.04-.56.2-.66.48-.08.18-.07.33.03.45s.22.18.36.18h.27l.42-.06a72.42 72.42 0 0 1-.66 1.26c-.2.36-.51.8-.93 1.32l-.92 1.18a16.34 16.34 0 0 1-2.6 2.3c-.66.46-1.34.84-2.04 1.14-.7.28-1.38.42-2.04.42-.44 0-.82-.1-1.14-.3-.3-.2-.45-.54-.45-1.02a2.97 2.97 0 0 1 .15-.9c.22-.74.61-1.47 1.17-2.19a12.87 12.87 0 0 1 3.84-3.3l.45-.18c.2-.08.39-.12.57-.12.34 0 .51.18.51.54 0 .34-.17.69-.51 1.05-.32.36-.6.64-.84.84-.56.44-1.21.87-1.95 1.29-.72.4-1.32.62-1.8.66-.16 0-.24.05-.24.15 0 .16.13.24.39.24h.06a9.59 9.59 0 0 0 3.72-1.41c.68-.42 1.2-.9 1.56-1.44a2.63 2.63 0 0 0 .42-1.38c0-.28-.07-.55-.21-.81a1.12 1.12 0 0 0-.69-.57 1.89 1.89 0 0 0-.6-.09c-.6 0-1.27.19-2.01.57a14.55 14.55 0 0 0-4.08 3.15c-.54.6-.91 1.13-1.11 1.59a4.47 4.47 0 0 0-.42 1.68Z" fill="#355DFF"/></svg>