<svg width="260" height="44" viewBox="0 0 260 44" fill="none" xmlns="http://www.w3.org/2000/svg">
    <path d="M122.548 42V35.364L130.836 28C133.375 25.7227 135.335 23.856 136.716 22.4C138.116 20.944 139.087 19.6934 139.628 18.648C140.188 17.584 140.468 16.5107 140.468 15.428C140.468 13.8414 139.945 12.628 138.9 11.788C137.855 10.948 136.361 10.528 134.42 10.528C132.703 10.528 131.06 10.8734 129.492 11.564C127.943 12.2547 126.533 13.272 125.264 14.616L121.792 7.16802C123.64 5.50669 125.759 4.22802 128.148 3.33202C130.537 2.41736 132.955 1.96002 135.4 1.96002C138.368 1.96002 140.935 2.47335 143.1 3.50002C145.284 4.50802 146.964 5.92669 148.14 7.75602C149.335 9.58536 149.932 11.6947 149.932 14.084C149.932 15.6894 149.615 17.248 148.98 18.76C148.345 20.272 147.235 21.9614 145.648 23.828C144.08 25.6947 141.877 27.9814 139.04 30.688L135.904 33.628H150.968V42H122.548Z" fill="url(#paint0_radial_630_381)"/>
    <path d="M172.731 42.84C170.043 42.84 167.654 42.308 165.563 41.244C163.473 40.18 161.709 38.7054 160.271 36.82C158.853 34.9347 157.77 32.76 157.023 30.296C156.277 27.832 155.903 25.2 155.903 22.4C155.903 19.5814 156.277 16.94 157.023 14.476C157.77 12.012 158.853 9.84669 160.271 7.98002C161.709 6.09469 163.473 4.62002 165.563 3.55602C167.654 2.49202 170.043 1.96002 172.731 1.96002C175.438 1.96002 177.837 2.49202 179.927 3.55602C182.018 4.62002 183.773 6.09469 185.191 7.98002C186.629 9.84669 187.721 12.012 188.467 14.476C189.214 16.94 189.587 19.5814 189.587 22.4C189.587 25.2 189.214 27.832 188.467 30.296C187.721 32.76 186.629 34.9347 185.191 36.82C183.773 38.7054 182.018 40.18 179.927 41.244C177.837 42.308 175.438 42.84 172.731 42.84ZM172.731 34.076C173.833 34.076 174.813 33.824 175.671 33.32C176.549 32.816 177.305 32.0787 177.939 31.108C178.574 30.1187 179.05 28.896 179.367 27.44C179.703 25.984 179.871 24.304 179.871 22.4C179.871 19.8614 179.573 17.724 178.975 15.988C178.397 14.2334 177.575 12.9174 176.511 12.04C175.447 11.1627 174.187 10.724 172.731 10.724C171.667 10.724 170.697 10.976 169.819 11.48C168.942 11.984 168.186 12.7307 167.551 13.72C166.917 14.6907 166.431 15.904 166.095 17.36C165.759 18.7974 165.591 20.4774 165.591 22.4C165.591 24.9387 165.89 27.076 166.487 28.812C167.085 30.548 167.915 31.864 168.979 32.76C170.043 33.6374 171.294 34.076 172.731 34.076Z" fill="url(#paint1_radial_630_381)"/>
    <path d="M193.423 42V35.364L201.711 28C204.25 25.7227 206.21 23.856 207.591 22.4C208.991 20.944 209.962 19.6934 210.503 18.648C211.063 17.584 211.343 16.5107 211.343 15.428C211.343 13.8414 210.82 12.628 209.775 11.788C208.73 10.948 207.236 10.528 205.295 10.528C203.578 10.528 201.935 10.8734 200.367 11.564C198.818 12.2547 197.408 13.272 196.139 14.616L192.667 7.16802C194.515 5.50669 196.634 4.22802 199.023 3.33202C201.412 2.41736 203.83 1.96002 206.275 1.96002C209.243 1.96002 211.81 2.47335 213.975 3.50002C216.159 4.50802 217.839 5.92669 219.015 7.75602C220.21 9.58536 220.807 11.6947 220.807 14.084C220.807 15.6894 220.49 17.248 219.855 18.76C219.22 20.272 218.11 21.9614 216.523 23.828C214.955 25.6947 212.752 27.9814 209.915 30.688L206.779 33.628H221.843V42H193.423Z" fill="url(#paint2_radial_630_381)"/>
    <path d="M243.382 42V34.888H225.042V27.608L236.914 2.80002H246.966L235.542 26.712H243.382V19.404H251.81V26.712H256.906V34.888H251.81V42H243.382Z" fill="url(#paint3_radial_630_381)"/>
    <path d="M7.36398 28.072H16.8V30.256H7.36398V28.072ZM11.396 17.376H13.356V24.992H11.396V17.376ZM19.124 24.348L19.628 22.052H26.376V24.348H19.124ZM6.32798 41.484C7.29865 40.42 7.90532 39.5427 8.14798 38.852C8.31598 38.4414 8.43732 37.9654 8.51198 37.424C8.58665 36.8827 8.62398 36.2294 8.62398 35.464V32.188H15.68V37.2C15.8106 37.088 15.9413 36.9667 16.072 36.836C16.2213 36.7054 16.3706 36.5654 16.52 36.416C16.856 36.08 17.1453 35.7814 17.388 35.52L18.228 37.536C17.668 38.0774 17.0613 38.6187 16.408 39.16C15.7546 39.7014 15.0453 40.2614 14.28 40.84L12.964 39.384C13.3186 39.0294 13.496 38.6374 13.496 38.208V34.428H10.808V35.94C10.808 37.3774 10.64 38.572 10.304 39.524C9.94932 40.42 9.23998 41.54 8.17598 42.884L6.32798 41.484ZM3.80798 28.996L6.04798 27.82V42.828H3.80798V28.996ZM16.044 28.212C16.996 26.3454 17.7706 24.516 18.368 22.724C18.8906 20.988 19.3106 19.2054 19.628 17.376L21.84 17.712C21.448 19.8027 20.9813 21.688 20.44 23.368C19.8426 25.216 19.0026 27.2227 17.92 29.388L16.044 28.212ZM15.26 41.624C16.6413 40.336 17.808 39.0387 18.76 37.732C19.712 36.4254 20.468 35.0907 21.028 33.728C21.6066 32.3467 22.0546 30.816 22.372 29.136C22.708 27.4374 22.9506 25.5054 23.1 23.34L25.228 23.368C25.0413 25.9627 24.7426 28.2307 24.332 30.172C23.94 32.0947 23.4173 33.7934 22.764 35.268C22.204 36.556 21.448 37.8534 20.496 39.16C19.5626 40.4667 18.4146 41.8387 17.052 43.276L15.26 41.624ZM19.796 24.096C20.0013 28.128 20.7106 31.4974 21.924 34.204C23.1186 36.8734 24.7706 39.2534 26.88 41.344L25.172 43.024C24.0707 41.7734 23.1186 40.5787 22.316 39.44C21.532 38.2827 20.8693 37.1067 20.328 35.912C19.712 34.5867 19.208 33.0934 18.816 31.432C18.4426 29.752 18.172 27.848 18.004 25.72L19.796 24.096ZM0.643982 32.972C1.67065 31.628 2.72532 30.0507 3.80798 28.24C4.57332 26.9147 5.25465 25.58 5.85198 24.236L7.86798 25.216C7.04665 26.9707 6.21598 28.548 5.37598 29.948C4.42398 31.516 3.40665 33 2.32398 34.4L0.643982 32.972ZM0.951982 24.684C1.97865 23.5454 2.93065 22.332 3.80798 21.044C4.55465 19.9987 5.28265 18.8227 5.99198 17.516L8.00798 18.664C7.24265 20.0454 6.42132 21.3707 5.54398 22.64C4.77865 23.76 3.85465 24.9547 2.77198 26.224L0.951982 24.684ZM7.89598 19.532H9.88398V24.068H14.868V19.532H16.856V26.168H7.89598V19.532Z" fill="black"/>
    <path d="M38.8172 33.196H53.3492V42.212H38.8172V33.196ZM41.2812 35.492V39.916H50.8852V35.492H41.2812ZM37.5012 20.456H55.2252V22.724H37.5012V20.456ZM39.0412 24.796H53.1252V26.924H39.0412V24.796ZM39.0412 28.968H53.1252V31.124H39.0412V28.968ZM29.7452 30.032C30.8465 28.296 31.9478 26.2614 33.0492 23.928C34.0012 21.856 34.7852 19.644 35.4012 17.292L37.8652 17.852C37.0812 20.54 36.1852 23.0134 35.1772 25.272C34.2625 27.3067 33.1332 29.416 31.7892 31.6L29.7452 30.032ZM46.6572 17.264C46.8812 17.7494 47.1612 18.4867 47.4972 19.476C47.7398 20.1107 47.9638 20.8107 48.1692 21.576L45.5372 21.744C45.4065 21.184 45.2105 20.5214 44.9492 19.756C44.7065 19.0094 44.4638 18.3467 44.2212 17.768L46.6572 17.264ZM33.3852 24.208L35.8492 22.584V42.996H33.3852V24.208Z" fill="black"/>
    <path d="M59.5464 22.416H68.6184V24.74H59.5464V22.416ZM68.5344 30.564C68.3664 30.6387 68.1797 30.7134 67.9744 30.788C67.7877 30.8627 67.5824 30.9374 67.3584 31.012C66.9477 31.18 66.5184 31.348 66.0704 31.516C65.641 31.684 65.193 31.8427 64.7264 31.992C62.9344 32.6267 61.3104 33.1587 59.8544 33.588L59.1824 31.208C60.5264 30.872 62.197 30.368 64.1944 29.696C64.3437 29.64 64.5024 29.584 64.6704 29.528C64.8384 29.472 64.997 29.416 65.1464 29.36C66.005 29.0614 66.9944 28.6974 68.1144 28.268L68.5344 30.564ZM74.5264 29.108C74.9557 30.5454 75.5064 31.908 76.1784 33.196C76.869 34.4654 77.597 35.492 78.3624 36.276C79.1464 37.1347 80.033 37.928 81.0224 38.656C82.0117 39.3654 83.2064 40.1027 84.6064 40.868L83.1784 43.024C80.4157 41.4 78.2597 39.72 76.7104 37.984C75.8144 36.9947 74.9743 35.7534 74.1904 34.26C73.4064 32.7667 72.7624 31.1894 72.2584 29.528L74.5264 29.108ZM70.5504 27.708H82.9264V29.92C82.553 31.2267 82.0677 32.4774 81.4704 33.672C80.8917 34.848 80.1637 35.9867 79.2864 37.088C78.521 38.0587 77.6064 39.0014 76.5424 39.916C75.497 40.812 74.2557 41.7267 72.8184 42.66L71.1944 40.56C73.8264 39.0294 75.8704 37.4147 77.3264 35.716C78.7824 33.9987 79.809 32.076 80.4064 29.948H70.5504V27.708ZM65.6224 39.832C65.6224 40.7654 65.4637 41.4374 65.1464 41.848C64.829 42.2774 64.241 42.5387 63.3824 42.632C62.337 42.7627 61.385 42.8094 60.5264 42.772L60.0224 40.336C60.7504 40.392 61.4224 40.4107 62.0384 40.392C62.4117 40.3734 62.673 40.336 62.8224 40.28C62.9717 40.2427 63.0744 40.1494 63.1304 40C63.1864 39.832 63.2144 39.5707 63.2144 39.216V17.376H65.6224V39.832ZM82.5904 18.58C82.5717 20.1854 82.497 21.8094 82.3664 23.452C82.329 24.0307 82.2077 24.4974 82.0024 24.852C81.797 25.2067 81.4797 25.4867 81.0504 25.692C80.621 25.8787 80.0237 26 79.2584 26.056C77.7837 26.1867 76.3557 26.2334 74.9744 26.196L74.6104 23.844C76.2904 23.9374 77.6717 23.9654 78.7544 23.928C79.2397 23.9094 79.557 23.844 79.7064 23.732C79.8557 23.6014 79.9584 23.3587 80.0144 23.004C80.0704 22.4814 80.0984 21.772 80.0984 20.876H71.7544V43.22H69.3464V18.58H82.5904Z" fill="black"/>
    <path d="M91.6155 32.216H110.152V42.464H91.6155V32.216ZM94.2475 34.624V40.028H107.52V34.624H94.2475ZM88.6475 27.4H113.12V29.808H88.6475V27.4ZM92.9875 21.212H111.44V23.592H92.9875V21.212ZM100.016 17.46H102.62V28.52H100.016V17.46ZM89.4315 25.748C90.3462 24.516 91.1395 23.256 91.8115 21.968C92.4835 20.6614 93.0715 19.308 93.5755 17.908L96.0395 18.72C95.7595 19.4667 95.4609 20.1947 95.1435 20.904C94.8449 21.5947 94.4995 22.3134 94.1075 23.06C93.1555 24.8707 92.3249 26.252 91.6155 27.204L89.4315 25.748Z" fill="black"/>
    <defs>
        <radialGradient id="paint0_radial_630_381" cx="0" cy="0" r="1" gradientUnits="userSpaceOnUse" gradientTransform="translate(120 30.9783) rotate(-7.2992) scale(140.136 92.5965)">
            <stop stop-color="#31FF12"/>
            <stop offset="0.347372" stop-color="#EDE355"/>
            <stop offset="0.676953" stop-color="#FED97E"/>
            <stop offset="1" stop-color="#0EF748"/>
        </radialGradient>
        <radialGradient id="paint1_radial_630_381" cx="0" cy="0" r="1" gradientUnits="userSpaceOnUse" gradientTransform="translate(120 30.9783) rotate(-7.2992) scale(140.136 92.5965)">
            <stop stop-color="#31FF12"/>
            <stop offset="0.347372" stop-color="#EDE355"/>
            <stop offset="0.676953" stop-color="#FED97E"/>
            <stop offset="1" stop-color="#0EF748"/>
        </radialGradient>
        <radialGradient id="paint2_radial_630_381" cx="0" cy="0" r="1" gradientUnits="userSpaceOnUse" gradientTransform="translate(120 30.9783) rotate(-7.2992) scale(140.136 92.5965)">
            <stop stop-color="#31FF12"/>
            <stop offset="0.347372" stop-color="#EDE355"/>
            <stop offset="0.676953" stop-color="#FED97E"/>
            <stop offset="1" stop-color="#0EF748"/>
        </radialGradient>
        <radialGradient id="paint3_radial_630_381" cx="0" cy="0" r="1" gradientUnits="userSpaceOnUse" gradientTransform="translate(120 30.9783) rotate(-7.2992) scale(140.136 92.5965)">
            <stop stop-color="#31FF12"/>
            <stop offset="0.347372" stop-color="#EDE355"/>
            <stop offset="0.676953" stop-color="#FED97E"/>
            <stop offset="1" stop-color="#0EF748"/>
        </radialGradient>
    </defs>
</svg>
