<svg width="130" height="36" viewBox="0 0 130 36" fill="none" xmlns="http://www.w3.org/2000/svg">
<path d="M6.80599 18.1961C5.90999 18.1961 5.12132 17.9767 4.43999 17.5381C3.75866 17.0901 3.22666 16.4741 2.84399 15.6901C2.46132 14.8967 2.26999 13.9821 2.26999 12.9461C2.26999 11.9101 2.46132 11.0001 2.84399 10.2161C3.22666 9.42272 3.75866 8.80672 4.43999 8.36806C5.12132 7.92006 5.90999 7.69606 6.80599 7.69606C7.70199 7.69606 8.48599 7.92006 9.15799 8.36806C9.83932 8.80672 10.3667 9.41806 10.74 10.2021C11.1227 10.9861 11.314 11.9007 11.314 12.9461C11.314 13.9821 11.1227 14.8967 10.74 15.6901C10.3667 16.4741 9.83932 17.0901 9.15799 17.5381C8.48599 17.9767 7.70199 18.1961 6.80599 18.1961ZM6.79199 16.9361C7.43599 16.9361 7.99599 16.7727 8.47199 16.4461C8.94799 16.1101 9.31666 15.6434 9.57799 15.0461C9.83932 14.4394 9.96999 13.7394 9.96999 12.9461C9.96999 12.1434 9.83932 11.4434 9.57799 10.8461C9.31666 10.2487 8.94799 9.78672 8.47199 9.46006C7.99599 9.12406 7.44066 8.95606 6.80599 8.95606C6.17132 8.95606 5.61132 9.12406 5.12599 9.46006C4.64999 9.78672 4.27666 10.2487 4.00599 10.8461C3.74466 11.4434 3.61399 12.1434 3.61399 12.9461C3.61399 13.7394 3.74466 14.4394 4.00599 15.0461C4.26732 15.6434 4.63599 16.1101 5.11199 16.4461C5.59732 16.7727 6.15732 16.9361 6.79199 16.9361Z" fill="#828282"/>
<path d="M12.824 15.5361C12.46 15.2654 12.2547 14.8921 12.208 14.4161C12.6374 14.1641 13.034 13.8561 13.398 13.4921V7.09406C13.398 6.16072 13.594 5.44206 13.986 4.93806C14.3874 4.43406 14.966 4.18672 15.722 4.19606C16.4127 4.20539 16.9494 4.46672 17.332 4.98006C17.724 5.49339 17.92 6.16072 17.92 6.98206C17.92 7.71006 17.8127 8.46139 17.598 9.23606C17.3927 10.0014 17.0707 10.7667 16.632 11.5321C16.716 11.5227 16.8 11.5181 16.884 11.5181C17.584 11.5181 18.1394 11.7654 18.55 12.2601C18.97 12.7547 19.18 13.4174 19.18 14.2481V15.4521C19.18 15.9934 19.2454 16.3854 19.376 16.6281C19.516 16.8707 19.7447 16.9921 20.062 16.9921C20.1647 16.9921 20.2767 16.9687 20.398 16.9221C20.5194 16.8754 20.6454 16.8054 20.776 16.7121C20.9347 16.7867 21.0654 16.9174 21.168 17.1041C21.2707 17.2814 21.3174 17.4587 21.308 17.6361C21.1587 17.8041 20.9674 17.9394 20.734 18.0421C20.5007 18.1447 20.2487 18.1961 19.978 18.1961C19.306 18.1961 18.788 17.9814 18.424 17.5521C18.0694 17.1134 17.892 16.4974 17.892 15.7041V14.2201C17.892 13.7441 17.7847 13.3754 17.57 13.1141C17.3647 12.8434 17.0707 12.7081 16.688 12.7081C16.3147 12.7081 15.9787 12.8341 15.68 13.0861C15.3814 13.3287 15.1434 13.6647 14.966 14.0941C14.7887 14.5234 14.6954 15.0181 14.686 15.5781V18.0001C14.5927 18.0281 14.49 18.0514 14.378 18.0701C14.266 18.0887 14.1587 18.0981 14.056 18.0981C13.8414 18.0981 13.622 18.0654 13.398 18.0001V15.1441C13.174 15.3214 12.9827 15.4521 12.824 15.5361ZM14.644 7.08006V12.5261C15.3067 11.5554 15.8107 10.5987 16.156 9.65606C16.5014 8.70406 16.674 7.80806 16.674 6.96806C16.674 6.44539 16.5854 6.04872 16.408 5.77806C16.24 5.49806 15.9927 5.35806 15.666 5.35806C14.9847 5.35806 14.644 5.93206 14.644 7.08006Z" fill="#828282"/>
<path d="M23.544 18.0981C23.3107 18.0981 23.096 18.0654 22.9 18.0001V7.89206C23.012 7.84539 23.124 7.81739 23.236 7.80806C23.348 7.79872 23.4413 7.79406 23.516 7.79406C23.6187 7.79406 23.726 7.79872 23.838 7.80806C23.9593 7.81739 24.076 7.84539 24.188 7.89206L27.618 14.6821L31.034 7.89206C31.1553 7.84539 31.2673 7.81739 31.37 7.80806C31.4727 7.79872 31.5613 7.79406 31.636 7.79406C31.7387 7.79406 31.8507 7.79872 31.972 7.80806C32.0933 7.81739 32.2053 7.84539 32.308 7.89206V18.0001C32.084 18.0654 31.8647 18.0981 31.65 18.0981C31.4167 18.0981 31.202 18.0654 31.006 18.0001V10.6921L28.192 16.2781C28.0333 16.3434 27.842 16.3761 27.618 16.3761C27.394 16.3761 27.198 16.3434 27.03 16.2781L24.202 10.6781V18.0001C23.978 18.0654 23.7587 18.0981 23.544 18.0981Z" fill="#828282"/>
<path d="M34.591 18.0561C34.3763 17.9814 34.1896 17.8694 34.031 17.7201C33.8816 17.5614 33.7836 17.3747 33.737 17.1601C33.905 17.0014 34.101 16.8007 34.325 16.5581C34.549 16.3154 34.7683 16.0261 34.983 15.6901C35.1976 15.3447 35.375 14.9574 35.515 14.5281C35.6643 14.0987 35.739 13.6181 35.739 13.0861V11.3921C35.823 11.3641 35.921 11.3407 36.033 11.3221C36.145 11.3034 36.2616 11.2941 36.383 11.2941C36.5976 11.2941 36.8076 11.3267 37.013 11.3921V14.6261C37.013 16.1754 37.5776 16.9501 38.707 16.9501C39.3696 16.9501 39.855 16.6841 40.163 16.1521C40.4803 15.6107 40.639 14.8734 40.639 13.9401V11.3921C40.835 11.3267 41.045 11.2941 41.269 11.2941C41.5023 11.2941 41.717 11.3267 41.913 11.3921V17.2301C42.109 17.0901 42.3096 16.9547 42.515 16.8241C42.7296 16.6841 42.9116 16.5721 43.061 16.4881C43.2476 16.6001 43.3923 16.7447 43.495 16.9221C43.5976 17.0994 43.663 17.3047 43.691 17.5381C43.551 17.6314 43.369 17.7527 43.145 17.9021C42.9303 18.0421 42.711 18.1867 42.487 18.3361C42.263 18.4854 42.0716 18.6114 41.913 18.7141V21.9201C41.913 24.1041 41.115 25.1961 39.519 25.1961C38.7816 25.1961 38.203 24.9767 37.783 24.5381C37.3723 24.0994 37.167 23.4974 37.167 22.7321C37.167 21.0241 38.3336 19.4234 40.667 17.9301V17.2721C40.135 17.8881 39.4256 18.1961 38.539 18.1961C37.251 18.1961 36.4016 17.6174 35.991 16.4601C35.5616 17.1694 35.095 17.7014 34.591 18.0561ZM38.427 22.7041C38.427 23.1054 38.5203 23.4181 38.707 23.6421C38.8936 23.8754 39.1503 23.9921 39.477 23.9921C40.2703 23.9921 40.667 23.3014 40.667 21.9201V19.4141C39.1736 20.4687 38.427 21.5654 38.427 22.7041Z" fill="#828282"/>
<path d="M46.864 18.0981C46.6587 18.0981 46.4627 18.0654 46.276 18.0001L43.602 8.04606C43.7327 7.95272 43.924 7.87806 44.176 7.82206C44.4373 7.75672 44.6613 7.73806 44.848 7.76606L47.018 15.8441L49.384 9.71206C49.5707 9.64672 49.7713 9.61406 49.986 9.61406C50.1727 9.61406 50.364 9.64672 50.56 9.71206L52.94 15.8721L55.11 7.76606C55.3527 7.73806 55.586 7.75672 55.81 7.82206C56.034 7.87806 56.2067 7.95272 56.328 8.04606L53.682 18.0001C53.4767 18.0654 53.276 18.0981 53.08 18.0981C52.8747 18.0981 52.6787 18.0654 52.492 18.0001L49.972 11.4901L47.466 18.0001C47.2607 18.0654 47.06 18.0981 46.864 18.0981Z" fill="#828282"/>
<path d="M55.9576 17.0201C56.191 16.9454 56.4803 16.8381 56.8256 16.6981C57.171 16.5487 57.4976 16.3947 57.8056 16.2361C57.4976 15.6387 57.3436 14.9481 57.3436 14.1641C57.3436 13.5854 57.451 13.0767 57.6656 12.6381C57.8803 12.1901 58.179 11.8401 58.5616 11.5881C58.9443 11.3267 59.3783 11.1961 59.8636 11.1961C60.2743 11.1961 60.6383 11.2941 60.9556 11.4901C61.273 11.6767 61.5203 11.9381 61.6976 12.2741C61.875 12.6101 61.9636 12.9974 61.9636 13.4361C61.9263 14.5561 61.133 15.6154 59.5836 16.6141C59.8916 16.8754 60.321 17.0061 60.8716 17.0061C61.1423 17.0061 61.413 16.9687 61.6836 16.8941C61.9543 16.8194 62.2156 16.7167 62.4676 16.5861C62.6076 16.6887 62.7103 16.8427 62.7756 17.0481C62.8503 17.2441 62.8876 17.4354 62.8876 17.6221C62.5796 17.7994 62.253 17.9394 61.9076 18.0421C61.5623 18.1447 61.1983 18.1961 60.8156 18.1961H60.8016C60.3163 18.1961 59.8636 18.1121 59.4436 17.9441C59.033 17.7667 58.7016 17.5241 58.4496 17.2161C58.1043 17.3934 57.7356 17.5661 57.3436 17.7341C56.961 17.8927 56.6343 18.0141 56.3636 18.0981C56.2143 17.9674 56.107 17.8134 56.0416 17.6361C55.967 17.4587 55.939 17.2534 55.9576 17.0201ZM58.5616 14.0521C58.5616 14.7147 58.669 15.2654 58.8836 15.7041C59.5276 15.2747 59.9943 14.8921 60.2836 14.5561C60.573 14.2107 60.727 13.8374 60.7456 13.4361C60.7456 13.1001 60.6616 12.8387 60.4936 12.6521C60.335 12.4561 60.111 12.3581 59.8216 12.3581C59.4576 12.3581 59.1543 12.5214 58.9116 12.8481C58.6783 13.1747 58.5616 13.5761 58.5616 14.0521Z" fill="#828282"/>
<path d="M67.9535 18.1961C67.0015 18.1961 66.1801 17.9861 65.4895 17.5661C64.8081 17.1461 64.2855 16.5581 63.9215 15.8021C63.5575 15.0461 63.3755 14.1594 63.3755 13.1421C63.3755 12.0594 63.5715 11.1121 63.9635 10.3001C64.3648 9.47872 64.9201 8.83939 65.6295 8.38206C66.3388 7.92472 67.1508 7.69606 68.0655 7.69606C68.7935 7.69606 69.4561 7.84539 70.0535 8.14406C70.6601 8.43339 71.1501 8.83939 71.5235 9.36206C71.4768 9.53006 71.3555 9.70272 71.1595 9.88006C70.9728 10.0574 70.7861 10.1741 70.5995 10.2301C70.2635 9.79139 69.8808 9.46939 69.4515 9.26406C69.0221 9.05872 68.5601 8.95606 68.0655 8.95606C67.4028 8.95606 66.8195 9.12872 66.3155 9.47406C65.8115 9.81939 65.4195 10.3001 65.1395 10.9161C64.8595 11.5321 64.7195 12.2507 64.7195 13.0721C64.7195 13.8467 64.8455 14.5234 65.0975 15.1021C65.3588 15.6807 65.7368 16.1334 66.2315 16.4601C66.7355 16.7774 67.3468 16.9361 68.0655 16.9361C68.6908 16.9361 69.2321 16.8101 69.6895 16.5581C70.1468 16.3061 70.5621 15.9514 70.9355 15.4941C71.1128 15.5501 71.2948 15.6527 71.4815 15.8021C71.6681 15.9514 71.7988 16.1007 71.8735 16.2501C71.4441 16.8847 70.8888 17.3701 70.2075 17.7061C69.5355 18.0327 68.7841 18.1961 67.9535 18.1961Z" fill="#828282"/>
<path d="M73.1365 15.5361C72.7725 15.2654 72.5672 14.8921 72.5205 14.4161C72.9499 14.1641 73.3465 13.8561 73.7105 13.4921V7.09406C73.7105 6.16072 73.9065 5.44206 74.2985 4.93806C74.6999 4.43406 75.2785 4.18672 76.0345 4.19606C76.7252 4.20539 77.2619 4.46672 77.6445 4.98006C78.0365 5.49339 78.2325 6.16072 78.2325 6.98206C78.2325 7.71006 78.1252 8.46139 77.9105 9.23606C77.7052 10.0014 77.3832 10.7667 76.9445 11.5321C77.0285 11.5227 77.1125 11.5181 77.1965 11.5181C77.8965 11.5181 78.4519 11.7654 78.8625 12.2601C79.2825 12.7547 79.4925 13.4174 79.4925 14.2481V15.4521C79.4925 15.9934 79.5579 16.3854 79.6885 16.6281C79.8285 16.8707 80.0572 16.9921 80.3745 16.9921C80.5239 16.9921 80.6312 17.0527 80.6965 17.1741C80.7619 17.2861 80.7945 17.4307 80.7945 17.6081C80.7945 17.7854 80.7479 17.9254 80.6545 18.0281C80.5705 18.1401 80.4492 18.1961 80.2905 18.1961C79.6185 18.1961 79.1005 17.9814 78.7365 17.5521C78.3819 17.1134 78.2045 16.4974 78.2045 15.7041V14.2201C78.2045 13.7441 78.0972 13.3754 77.8825 13.1141C77.6772 12.8434 77.3832 12.7081 77.0005 12.7081C76.6272 12.7081 76.2912 12.8341 75.9925 13.0861C75.6939 13.3287 75.4559 13.6647 75.2785 14.0941C75.1012 14.5234 75.0079 15.0181 74.9985 15.5781V18.0001C74.9052 18.0281 74.8025 18.0514 74.6905 18.0701C74.5785 18.0887 74.4712 18.0981 74.3685 18.0981C74.1539 18.0981 73.9345 18.0654 73.7105 18.0001V15.1441C73.4865 15.3214 73.2952 15.4521 73.1365 15.5361ZM74.9565 7.08006V12.5261C75.6192 11.5554 76.1232 10.5987 76.4685 9.65606C76.8139 8.70406 76.9865 7.80806 76.9865 6.96806C76.9865 6.44539 76.8979 6.04872 76.7205 5.77806C76.5525 5.49806 76.3052 5.35806 75.9785 5.35806C75.2972 5.35806 74.9565 5.93206 74.9565 7.08006Z" fill="#828282"/>
<path d="M80.3922 16.9921C80.7096 16.9921 81.0176 16.8381 81.3162 16.5301C81.6242 16.2127 81.8809 15.7881 82.0862 15.2561C82.0769 15.1254 82.0722 14.9947 82.0722 14.8641C82.0722 14.1547 82.2122 13.5247 82.4922 12.9741C82.7722 12.4234 83.1502 11.9894 83.6262 11.6721C84.1116 11.3547 84.6622 11.1961 85.2782 11.1961C85.6049 11.1961 85.9269 11.2614 86.2442 11.3921C86.5616 11.5134 86.8276 11.6814 87.0422 11.8961V11.3221C87.1262 11.2941 87.2242 11.2707 87.3362 11.2521C87.4482 11.2334 87.5649 11.2241 87.6862 11.2241C87.9102 11.2241 88.1202 11.2567 88.3162 11.3221V15.4241C88.3162 15.9187 88.3909 16.3061 88.5402 16.5861C88.6989 16.8567 88.9602 16.9921 89.3242 16.9921C89.4829 16.9921 89.5902 17.0574 89.6462 17.1881C89.7022 17.3187 89.7302 17.4587 89.7302 17.6081C89.7302 17.7574 89.6882 17.8927 89.6042 18.0141C89.5296 18.1354 89.4036 18.1961 89.2262 18.1961C88.3116 18.1961 87.7002 17.7854 87.3922 16.9641C87.1216 17.3467 86.7809 17.6501 86.3702 17.8741C85.9689 18.0887 85.5209 18.1961 85.0262 18.1961C84.4849 18.1961 84.0042 18.0794 83.5842 17.8461C83.1736 17.6034 82.8376 17.2721 82.5762 16.8521C81.9976 17.7481 81.2369 18.1961 80.2942 18.1961C80.1729 18.1961 80.0749 18.1401 80.0002 18.0281C79.9256 17.9161 79.8882 17.7714 79.8882 17.5941C79.8882 17.1927 80.0562 16.9921 80.3922 16.9921ZM83.3742 14.8641C83.3742 15.5267 83.5236 16.0494 83.8222 16.4321C84.1302 16.8054 84.5502 16.9921 85.0822 16.9921C85.6702 16.9921 86.1416 16.7914 86.4962 16.3901C86.8602 15.9887 87.0422 15.4614 87.0422 14.8081V13.2401C86.8556 12.9881 86.6176 12.7874 86.3282 12.6381C86.0389 12.4794 85.7402 12.4001 85.4322 12.4001C85.0309 12.4001 84.6762 12.5074 84.3682 12.7221C84.0602 12.9367 83.8176 13.2307 83.6402 13.6041C83.4629 13.9681 83.3742 14.3881 83.3742 14.8641Z" fill="#828282"/>
<path d="M89.32 16.9921C89.5533 16.9921 89.8193 16.9221 90.118 16.7821C90.426 16.6421 90.7246 16.4041 91.014 16.0681C91.3033 15.7321 91.5413 15.2794 91.728 14.7101C91.9146 14.1314 92.008 13.4081 92.008 12.5401V11.1961H90.972C90.9066 11.0467 90.874 10.8601 90.874 10.6361C90.874 10.4121 90.9066 10.2254 90.972 10.0761H92.008V7.59806C92.1853 7.53272 92.4 7.50006 92.652 7.50006C92.876 7.50006 93.0906 7.53272 93.296 7.59806V10.0761H95.382C95.4566 10.2254 95.494 10.4121 95.494 10.6361C95.494 10.8601 95.4566 11.0467 95.382 11.1961H93.296V15.5921C93.296 15.8161 93.3146 16.0354 93.352 16.2501C93.3986 16.4647 93.4826 16.6467 93.604 16.7961C93.7253 16.9361 93.912 17.0061 94.164 17.0061C94.416 17.0061 94.64 16.9407 94.836 16.8101C95.0413 16.6701 95.214 16.5347 95.354 16.4041C95.5033 16.5161 95.6386 16.6561 95.76 16.8241C95.8813 16.9921 95.956 17.1601 95.984 17.3281C95.9 17.4307 95.7693 17.5521 95.592 17.6921C95.4146 17.8227 95.2 17.9394 94.948 18.0421C94.696 18.1447 94.4113 18.1961 94.094 18.1961C93.534 18.1961 93.1 18.0421 92.792 17.7341C92.4933 17.4261 92.2973 17.0247 92.204 16.5301C91.812 17.0994 91.35 17.5194 90.818 17.7901C90.2953 18.0607 89.7633 18.1961 89.222 18.1961C89.1006 18.1961 89.0026 18.1354 88.928 18.0141C88.8533 17.9021 88.816 17.7621 88.816 17.5941C88.816 17.4167 88.858 17.2721 88.942 17.1601C89.026 17.0481 89.152 16.9921 89.32 16.9921Z" fill="#828282"/>
<path d="M98.0889 18.1961C97.8276 18.1961 97.6036 18.1027 97.4169 17.9161C97.2302 17.7201 97.1369 17.4914 97.1369 17.2301C97.1369 16.9687 97.2302 16.7447 97.4169 16.5581C97.6036 16.3714 97.8276 16.2781 98.0889 16.2781C98.3502 16.2781 98.5742 16.3714 98.7609 16.5581C98.9569 16.7447 99.0549 16.9687 99.0549 17.2301C99.0549 17.4914 98.9569 17.7201 98.7609 17.9161C98.5742 18.1027 98.3502 18.1961 98.0889 18.1961Z" fill="#828282"/>
<path d="M103.881 18.1961C103.153 18.1961 102.519 18.0514 101.977 17.7621C101.436 17.4727 101.016 17.0714 100.717 16.5581C100.419 16.0354 100.269 15.4241 100.269 14.7241C100.269 14.0334 100.4 13.4267 100.661 12.9041C100.923 12.3721 101.282 11.9567 101.739 11.6581C102.206 11.3501 102.738 11.1961 103.335 11.1961C103.783 11.1961 104.189 11.2847 104.553 11.4621C104.927 11.6301 105.23 11.8774 105.463 12.2041C105.351 12.5867 105.081 12.8621 104.651 13.0301C104.343 12.6101 103.919 12.4001 103.377 12.4001C102.836 12.4001 102.397 12.6054 102.061 13.0161C101.735 13.4174 101.571 13.9634 101.571 14.6541C101.571 15.3634 101.777 15.9327 102.187 16.3621C102.607 16.7914 103.2 17.0061 103.965 17.0061C104.087 17.0061 104.185 17.0667 104.259 17.1881C104.343 17.3001 104.385 17.4447 104.385 17.6221C104.385 17.7994 104.339 17.9394 104.245 18.0421C104.161 18.1447 104.04 18.1961 103.881 18.1961Z" fill="#828282"/>
<path d="M103.901 18.1961C103.77 18.1961 103.667 18.1401 103.593 18.0281C103.509 17.9161 103.467 17.7714 103.467 17.5941C103.467 17.4074 103.513 17.2627 103.607 17.1601C103.7 17.0574 103.821 17.0061 103.971 17.0061C104.54 17.0061 105.058 16.8567 105.525 16.5581C106.001 16.2501 106.388 15.8301 106.687 15.2981C106.659 15.1021 106.645 14.8967 106.645 14.6821C106.645 14.0101 106.789 13.4127 107.079 12.8901C107.368 12.3674 107.76 11.9567 108.255 11.6581C108.759 11.3501 109.323 11.1961 109.949 11.1961C110.574 11.1961 111.134 11.3501 111.629 11.6581C112.123 11.9567 112.511 12.3674 112.791 12.8901C113.08 13.4127 113.225 14.0101 113.225 14.6821C113.225 15.3541 113.08 15.9561 112.791 16.4881C112.511 17.0201 112.123 17.4401 111.629 17.7481C111.143 18.0467 110.583 18.1961 109.949 18.1961C109.351 18.1961 108.815 18.0607 108.339 17.7901C107.863 17.5194 107.48 17.1507 107.191 16.6841C106.799 17.1694 106.318 17.5427 105.749 17.8041C105.189 18.0654 104.573 18.1961 103.901 18.1961ZM109.935 16.9921C110.532 16.9921 111.008 16.7821 111.363 16.3621C111.727 15.9421 111.909 15.3821 111.909 14.6821C111.909 14.3367 111.857 14.0194 111.755 13.7301C111.195 13.7114 110.686 13.5994 110.229 13.3941C109.781 13.1887 109.426 12.9087 109.165 12.5541C108.791 12.7127 108.497 12.9834 108.283 13.3661C108.068 13.7394 107.961 14.1874 107.961 14.7101C107.961 15.3914 108.138 15.9421 108.493 16.3621C108.857 16.7821 109.337 16.9921 109.935 16.9921Z" fill="#828282"/>
<path d="M116.45 18.0981C116.217 18.0981 116.007 18.0654 115.82 18.0001V13.5341C115.82 12.7781 115.606 12.4001 115.176 12.4001C114.971 12.4001 114.686 12.4887 114.322 12.6661C113.958 12.8434 113.543 13.0954 113.076 13.4221C112.992 13.4781 112.904 13.5061 112.81 13.5061C112.68 13.5061 112.549 13.4314 112.418 13.2821C112.288 13.1327 112.222 12.9741 112.222 12.8061C112.222 12.6474 112.302 12.5167 112.46 12.4141C113.123 11.9754 113.66 11.6627 114.07 11.4761C114.481 11.2894 114.887 11.1961 115.288 11.1961C115.69 11.1961 116.03 11.3127 116.31 11.5461C116.6 11.7701 116.805 12.0827 116.926 12.4841C117.141 12.0734 117.421 11.7561 117.766 11.5321C118.121 11.3081 118.518 11.1961 118.956 11.1961C119.871 11.1961 120.492 11.6674 120.818 12.6101C121.042 12.1621 121.346 11.8167 121.728 11.5741C122.111 11.3221 122.545 11.1961 123.03 11.1961C123.693 11.1961 124.202 11.4061 124.556 11.8261C124.911 12.2461 125.088 12.8387 125.088 13.6041V15.5501C125.088 16.0634 125.154 16.4321 125.284 16.6561C125.424 16.8801 125.644 16.9921 125.942 16.9921C126.045 16.9921 126.157 16.9687 126.278 16.9221C126.4 16.8754 126.526 16.8054 126.656 16.7121C126.815 16.7867 126.946 16.9174 127.048 17.1041C127.151 17.2814 127.198 17.4587 127.188 17.6361C127.039 17.8041 126.848 17.9394 126.614 18.0421C126.381 18.1447 126.129 18.1961 125.858 18.1961H125.844C124.491 18.1961 123.814 17.3654 123.814 15.7041V13.9121C123.814 13.4267 123.726 13.0534 123.548 12.7921C123.371 12.5307 123.119 12.4001 122.792 12.4001C122.298 12.4001 121.906 12.6847 121.616 13.2541C121.336 13.8141 121.196 14.5934 121.196 15.5921V18.0001C121.103 18.0281 121 18.0514 120.888 18.0701C120.776 18.0887 120.669 18.0981 120.566 18.0981C120.342 18.0981 120.128 18.0654 119.922 18.0001V14.1081C119.922 13.5574 119.824 13.1374 119.628 12.8481C119.442 12.5494 119.162 12.4001 118.788 12.4001C118.452 12.4001 118.154 12.5354 117.892 12.8061C117.64 13.0674 117.44 13.4407 117.29 13.9261C117.15 14.4021 117.08 14.9574 117.08 15.5921V18.0001C116.987 18.0281 116.884 18.0514 116.772 18.0701C116.66 18.0887 116.553 18.0981 116.45 18.0981Z" fill="#828282"/>
<path d="M52.156 27.8881H56.2V28.8241H52.156V27.8881ZM53.884 23.3041H54.724V26.5681H53.884V23.3041ZM57.196 26.2921L57.412 25.3081H60.304V26.2921H57.196ZM51.712 33.6361C52.128 33.1801 52.388 32.8041 52.492 32.5081C52.564 32.3321 52.616 32.1281 52.648 31.8961C52.68 31.6641 52.696 31.3841 52.696 31.0561V29.6521H55.72V31.8001C55.776 31.7521 55.832 31.7001 55.888 31.6441C55.952 31.5881 56.016 31.5281 56.08 31.4641C56.224 31.3201 56.348 31.1921 56.452 31.0801L56.812 31.9441C56.572 32.1761 56.312 32.4081 56.032 32.6401C55.752 32.8721 55.448 33.1121 55.12 33.3601L54.556 32.7361C54.708 32.5841 54.784 32.4161 54.784 32.2321V30.6121H53.632V31.2601C53.632 31.8761 53.56 32.3881 53.416 32.7961C53.264 33.1801 52.96 33.6601 52.504 34.2361L51.712 33.6361ZM50.632 28.2841L51.592 27.7801V34.2121H50.632V28.2841ZM55.876 27.9481C56.284 27.1481 56.616 26.3641 56.872 25.5961C57.096 24.8521 57.276 24.0881 57.412 23.3041L58.36 23.4481C58.192 24.3441 57.992 25.1521 57.76 25.8721C57.504 26.6641 57.144 27.5241 56.68 28.4521L55.876 27.9481ZM55.54 33.6961C56.132 33.1441 56.632 32.5881 57.04 32.0281C57.448 31.4681 57.772 30.8961 58.012 30.3121C58.26 29.7201 58.452 29.0641 58.588 28.3441C58.732 27.6161 58.836 26.7881 58.9 25.8601L59.812 25.8721C59.732 26.9841 59.604 27.9561 59.428 28.7881C59.26 29.6121 59.036 30.3401 58.756 30.9721C58.516 31.5241 58.192 32.0801 57.784 32.6401C57.384 33.2001 56.892 33.7881 56.308 34.4041L55.54 33.6961ZM57.484 26.1841C57.572 27.9121 57.876 29.3561 58.396 30.5161C58.908 31.6601 59.616 32.6801 60.52 33.5761L59.788 34.2961C59.316 33.7601 58.908 33.2481 58.564 32.7601C58.228 32.2641 57.944 31.7601 57.712 31.2481C57.448 30.6801 57.232 30.0401 57.064 29.3281C56.904 28.6081 56.788 27.7921 56.716 26.8801L57.484 26.1841ZM49.276 29.9881C49.716 29.4121 50.168 28.7361 50.632 27.9601C50.96 27.3921 51.252 26.8201 51.508 26.2441L52.372 26.6641C52.02 27.4161 51.664 28.0921 51.304 28.6921C50.896 29.3641 50.46 30.0001 49.996 30.6001L49.276 29.9881ZM49.408 26.4361C49.848 25.9481 50.256 25.4281 50.632 24.8761C50.952 24.4281 51.264 23.9241 51.568 23.3641L52.432 23.8561C52.104 24.4481 51.752 25.0161 51.376 25.5601C51.048 26.0401 50.652 26.5521 50.188 27.0961L49.408 26.4361ZM52.384 24.2281H53.236V26.1721H55.372V24.2281H56.224V27.0721H52.384V24.2281Z" fill="#828282"/>
<path d="M65.6359 30.0841H71.8639V33.9481H65.6359V30.0841ZM66.6919 31.0681V32.9641H70.8079V31.0681H66.6919ZM65.0719 24.6241H72.6679V25.5961H65.0719V24.6241ZM65.7319 26.4841H71.7679V27.3961H65.7319V26.4841ZM65.7319 28.2721H71.7679V29.1961H65.7319V28.2721ZM61.7479 28.7281C62.2199 27.9841 62.6919 27.1121 63.1639 26.1121C63.5719 25.2241 63.9079 24.2761 64.1719 23.2681L65.2279 23.5081C64.8919 24.6601 64.5079 25.7201 64.0759 26.6881C63.6839 27.5601 63.1999 28.4641 62.6239 29.4001L61.7479 28.7281ZM68.9959 23.2561C69.0919 23.4641 69.2119 23.7801 69.3559 24.2041C69.4599 24.4761 69.5559 24.7761 69.6439 25.1041L68.5159 25.1761C68.4599 24.9361 68.3759 24.6521 68.2639 24.3241C68.1599 24.0041 68.0559 23.7201 67.9519 23.4721L68.9959 23.2561ZM63.3079 26.2321L64.3639 25.5361V34.2841H63.3079V26.2321Z" fill="#828282"/>
<path d="M74.5199 25.4641H78.4079V26.4601H74.5199V25.4641ZM78.3719 28.9561C78.2999 28.9881 78.2199 29.0201 78.1319 29.0521C78.0519 29.0841 77.9639 29.1161 77.8679 29.1481C77.6919 29.2201 77.5079 29.2921 77.3159 29.3641C77.1319 29.4361 76.9399 29.5041 76.7399 29.5681C75.9719 29.8401 75.2759 30.0681 74.6519 30.2521L74.3639 29.2321C74.9399 29.0881 75.6559 28.8721 76.5119 28.5841C76.5759 28.5601 76.6439 28.5361 76.7159 28.5121C76.7879 28.4881 76.8559 28.4641 76.9199 28.4401C77.2879 28.3121 77.7119 28.1561 78.1919 27.9721L78.3719 28.9561ZM80.9399 28.3321C81.1239 28.9481 81.3599 29.5321 81.6479 30.0841C81.9439 30.6281 82.2559 31.0681 82.5839 31.4041C82.9199 31.7721 83.2999 32.1121 83.7239 32.4241C84.1479 32.7281 84.6599 33.0441 85.2599 33.3721L84.6479 34.2961C83.4639 33.6001 82.5399 32.8801 81.8759 32.1361C81.4919 31.7121 81.1319 31.1801 80.7959 30.5401C80.4599 29.9001 80.1839 29.2241 79.9679 28.5121L80.9399 28.3321ZM79.2359 27.7321H84.5399V28.6801C84.3799 29.2401 84.1719 29.7761 83.9159 30.2881C83.6679 30.7921 83.3559 31.2801 82.9799 31.7521C82.6519 32.1681 82.2599 32.5721 81.8039 32.9641C81.3559 33.3481 80.8239 33.7401 80.2079 34.1401L79.5119 33.2401C80.6399 32.5841 81.5159 31.8921 82.1399 31.1641C82.7639 30.4281 83.2039 29.6041 83.4599 28.6921H79.2359V27.7321ZM77.1239 32.9281C77.1239 33.3281 77.0559 33.6161 76.9199 33.7921C76.7839 33.9761 76.5319 34.0881 76.1639 34.1281C75.7159 34.1841 75.3079 34.2041 74.9399 34.1881L74.7239 33.1441C75.0359 33.1681 75.3239 33.1761 75.5879 33.1681C75.7479 33.1601 75.8599 33.1441 75.9239 33.1201C75.9879 33.1041 76.0319 33.0641 76.0559 33.0001C76.0799 32.9281 76.0919 32.8161 76.0919 32.6641V23.3041H77.1239V32.9281ZM84.3959 23.8201C84.3879 24.5081 84.3559 25.2041 84.2999 25.9081C84.2839 26.1561 84.2319 26.3561 84.1439 26.5081C84.0559 26.6601 83.9199 26.7801 83.7359 26.8681C83.5519 26.9481 83.2959 27.0001 82.9679 27.0241C82.3359 27.0801 81.7239 27.1001 81.1319 27.0841L80.9759 26.0761C81.6959 26.1161 82.2879 26.1281 82.7519 26.1121C82.9599 26.1041 83.0959 26.0761 83.1599 26.0281C83.2239 25.9721 83.2679 25.8681 83.2919 25.7161C83.3159 25.4921 83.3279 25.1881 83.3279 24.8041H79.7519V34.3801H78.7199V23.8201H84.3959Z" fill="#828282"/>
<path d="M88.2638 29.6641H96.2078V34.0561H88.2638V29.6641ZM89.3918 30.6961V33.0121H95.0798V30.6961H89.3918ZM86.9918 27.6001H97.4798V28.6321H86.9918V27.6001ZM88.8518 24.9481H96.7598V25.9681H88.8518V24.9481ZM91.8638 23.3401H92.9798V28.0801H91.8638V23.3401ZM87.3278 26.8921C87.7198 26.3641 88.0598 25.8241 88.3478 25.2721C88.6358 24.7121 88.8878 24.1321 89.1038 23.5321L90.1598 23.8801C90.0398 24.2001 89.9118 24.5121 89.7758 24.8161C89.6478 25.1121 89.4998 25.4201 89.3318 25.7401C88.9238 26.5161 88.5678 27.1081 88.2638 27.5161L87.3278 26.8921Z" fill="#828282"/>
<path d="M99.2477 32.0521C99.8477 31.6201 100.456 31.1361 101.072 30.6001C101.688 30.0641 102.192 29.5761 102.584 29.1361C102.96 28.7281 103.232 28.3401 103.4 27.9721C103.568 27.6041 103.652 27.2441 103.652 26.8921C103.652 26.4681 103.516 26.1281 103.244 25.8721C102.972 25.6081 102.6 25.4761 102.128 25.4761C101.68 25.4761 101.304 25.6121 101 25.8841C100.704 26.1481 100.5 26.5321 100.388 27.0361L99.1757 26.7601C99.2877 26.0641 99.5957 25.4881 100.1 25.0321C100.612 24.5681 101.296 24.3361 102.152 24.3361C102.728 24.3361 103.228 24.4441 103.652 24.6601C104.084 24.8681 104.416 25.1601 104.648 25.5361C104.88 25.9121 104.996 26.3401 104.996 26.8201C104.996 27.3481 104.88 27.8401 104.648 28.2961C104.424 28.7521 104.028 29.2761 103.46 29.8681C103.164 30.1961 102.796 30.5601 102.356 30.9601C101.924 31.3601 101.532 31.7041 101.18 31.9921V32.0041H104.984V33.1681H99.2477V32.0521Z" fill="#828282"/>
<path d="M109.321 33.3001C108.609 33.3001 108.005 33.1081 107.509 32.7241C107.021 32.3401 106.653 31.8121 106.405 31.1401C106.165 30.4601 106.045 29.6801 106.045 28.8001C106.045 27.9361 106.165 27.1681 106.405 26.4961C106.653 25.8161 107.021 25.2841 107.509 24.9001C108.005 24.5081 108.609 24.3121 109.321 24.3121C110.033 24.3121 110.633 24.5081 111.121 24.9001C111.609 25.2841 111.973 25.8161 112.213 26.4961C112.461 27.1681 112.585 27.9361 112.585 28.8001C112.585 29.6801 112.461 30.4601 112.213 31.1401C111.973 31.8121 111.605 32.3401 111.109 32.7241C110.621 33.1081 110.025 33.3001 109.321 33.3001ZM109.321 32.1841C109.737 32.1841 110.089 32.0481 110.377 31.7761C110.673 31.4961 110.893 31.1041 111.037 30.6001C111.189 30.0881 111.265 29.4881 111.265 28.8001C111.265 28.1041 111.185 27.5041 111.025 27.0001C110.873 26.4961 110.649 26.1121 110.353 25.8481C110.065 25.5841 109.721 25.4521 109.321 25.4521C108.913 25.4521 108.561 25.5881 108.265 25.8601C107.977 26.1241 107.753 26.5081 107.593 27.0121C107.441 27.5161 107.365 28.1121 107.365 28.8001C107.365 29.4961 107.441 30.0961 107.593 30.6001C107.745 31.1041 107.965 31.4961 108.253 31.7761C108.549 32.0481 108.905 32.1841 109.321 32.1841Z" fill="#828282"/>
<path d="M113.568 32.0521C114.168 31.6201 114.776 31.1361 115.392 30.6001C116.008 30.0641 116.512 29.5761 116.904 29.1361C117.28 28.7281 117.552 28.3401 117.72 27.9721C117.888 27.6041 117.972 27.2441 117.972 26.8921C117.972 26.4681 117.836 26.1281 117.564 25.8721C117.292 25.6081 116.92 25.4761 116.448 25.4761C116 25.4761 115.624 25.6121 115.32 25.8841C115.024 26.1481 114.82 26.5321 114.708 27.0361L113.496 26.7601C113.608 26.0641 113.916 25.4881 114.42 25.0321C114.932 24.5681 115.616 24.3361 116.472 24.3361C117.048 24.3361 117.548 24.4441 117.972 24.6601C118.404 24.8681 118.736 25.1601 118.968 25.5361C119.2 25.9121 119.316 26.3401 119.316 26.8201C119.316 27.3481 119.2 27.8401 118.968 28.2961C118.744 28.7521 118.348 29.2761 117.78 29.8681C117.484 30.1961 117.116 30.5601 116.676 30.9601C116.244 31.3601 115.852 31.7041 115.5 31.9921V32.0041H119.304V33.1681H113.568V32.0521Z" fill="#828282"/>
<path d="M124.425 33.1681V31.1161H120.129L120.117 29.8801C120.805 28.8481 121.377 27.9121 121.833 27.0721C122.289 26.2241 122.669 25.3561 122.973 24.4681H124.329C124.009 25.3721 123.593 26.3241 123.081 27.3241C122.569 28.3241 122.045 29.2201 121.509 30.0121V30.0361H124.425V26.8201H125.697V30.0361H126.957V31.1161H125.697V33.1681H124.425Z" fill="#828282"/>
</svg>
